<svg width="24" height="24" viewBox="0 0 24 24" fill="none" xmlns="http://www.w3.org/2000/svg">
<path d="M12 5C6.55601 5 3.53101 9.234 2.45601 11.116C2.23501 11.502 2.125 11.696 2.136 11.984C2.149 12.272 2.27901 12.46 2.53801 12.836C3.818 14.694 7.294 19 12 19C16.706 19 20.182 14.694 21.462 12.836C21.722 12.46 21.852 12.272 21.863 11.984C21.875 11.696 21.765 11.502 21.544 11.116C20.47 9.234 17.444 5 12 5Z" stroke="#C01EDB" stroke-width="2"/>
<path d="M12 16C14.2091 16 16 14.2091 16 12C16 9.79086 14.2091 8 12 8C9.79086 8 8 9.79086 8 12C8 14.2091 9.79086 16 12 16Z" fill="#C01EDB"/>
</svg>
