<svg width="20" height="19" viewBox="0 0 20 19" fill="none" xmlns="http://www.w3.org/2000/svg">
<path d="M2.125 1.75C1.89294 1.75 1.67038 1.84219 1.50628 2.00628C1.34219 2.17038 1.25 2.39294 1.25 2.625V15.375C1.25 15.8723 1.44754 16.3492 1.79917 16.7008C2.15081 17.0525 2.62772 17.25 3.125 17.25H11.126C11.0428 17.0298 11.0001 16.7964 11 16.561V2.625C11 2.39294 10.9078 2.17038 10.7437 2.00628C10.5796 1.84219 10.3571 1.75 10.125 1.75H2.125ZM12.8125 18.496V18.5H3.125C2.2962 18.5 1.50134 18.1708 0.915291 17.5847C0.32924 16.9987 0 16.2038 0 15.375V2.625C0 2.06141 0.223883 1.52091 0.622398 1.1224C1.02091 0.723883 1.56141 0.5 2.125 0.5H10.125C10.6886 0.5 11.2291 0.723883 11.6276 1.1224C12.0261 1.52091 12.25 2.06141 12.25 2.625V4.5H18V4.5015C19.1115 4.542 20 5.456 20 6.5775V12.375C20 12.9386 19.7761 13.4791 19.3776 13.8776C18.9791 14.2761 18.4386 14.5 17.875 14.5H15.3675L14.8345 16.97C14.7363 17.4244 14.4781 17.8285 14.107 18.1086C13.7358 18.3887 13.2765 18.5261 12.8125 18.496ZM12.25 16.561C12.2495 16.7315 12.3122 16.8961 12.426 17.023C12.5398 17.1499 12.6966 17.2301 12.8661 17.2482C13.0356 17.2662 13.2058 17.2208 13.3437 17.1206C13.4817 17.0205 13.5776 16.8728 13.613 16.706L15.892 6.1395C15.921 6.0035 15.9627 5.87367 16.017 5.75H12.25V16.561ZM17.114 6.403L15.637 13.25H17.875C18.1071 13.25 18.3296 13.1578 18.4937 12.9937C18.6578 12.8296 18.75 12.6071 18.75 12.375V6.5775C18.7501 6.37314 18.6746 6.17596 18.538 6.02394C18.4015 5.87193 18.2134 5.77583 18.0102 5.75416C17.807 5.73249 17.603 5.78679 17.4374 5.90658C17.2719 6.02638 17.157 6.20321 17.114 6.403ZM3.75 6C3.94891 6 4.13968 5.92098 4.28033 5.78033C4.42098 5.63968 4.5 5.44891 4.5 5.25C4.5 5.05109 4.42098 4.86032 4.28033 4.71967C4.13968 4.57902 3.94891 4.5 3.75 4.5C3.55109 4.5 3.36032 4.57902 3.21967 4.71967C3.07902 4.86032 3 5.05109 3 5.25C3 5.44891 3.07902 5.63968 3.21967 5.78033C3.36032 5.92098 3.55109 6 3.75 6ZM3 9.125C3 8.78 3.28 8.5 3.625 8.5H8.875C9.04076 8.5 9.19973 8.56585 9.31694 8.68306C9.43415 8.80027 9.5 8.95924 9.5 9.125C9.5 9.29076 9.43415 9.44973 9.31694 9.56694C9.19973 9.68415 9.04076 9.75 8.875 9.75H3.625C3.28 9.75 3 9.47 3 9.125ZM3.625 12.5C3.45924 12.5 3.30027 12.5658 3.18306 12.6831C3.06585 12.8003 3 12.9592 3 13.125C3 13.2908 3.06585 13.4497 3.18306 13.5669C3.30027 13.6842 3.45924 13.75 3.625 13.75H8.875C9.04076 13.75 9.19973 13.6842 9.31694 13.5669C9.43415 13.4497 9.5 13.2908 9.5 13.125C9.5 12.9592 9.43415 12.8003 9.31694 12.6831C9.19973 12.5658 9.04076 12.5 8.875 12.5H3.625Z" fill="#333333"/>
</svg>
