<svg width="36" height="36" viewBox="0 0 36 36" fill="none" xmlns="http://www.w3.org/2000/svg">
<g clip-path="url(#clip0_23_1740)">
<path d="M0 27C0 28.0609 0.421427 29.0783 1.17157 29.8284C1.92172 30.5786 2.93913 31 4 31H32C33.0609 31 34.0783 30.5786 34.8284 29.8284C35.5786 29.0783 36 28.0609 36 27V22H0V27Z" fill="#138808"/>
<path d="M36 14V9C36 7.93913 35.5786 6.92172 34.8284 6.17157C34.0783 5.42143 33.0609 5 32 5H4C2.93913 5 1.92172 5.42143 1.17157 6.17157C0.421427 6.92172 0 7.93913 0 9L0 14H36Z" fill="#FF9933"/>
<path d="M0 13.667H36V22.334H0V13.667Z" fill="#F7F7F7"/>
<path d="M18 22C20.2091 22 22 20.2091 22 18C22 15.7909 20.2091 14 18 14C15.7909 14 14 15.7909 14 18C14 20.2091 15.7909 22 18 22Z" fill="#000080"/>
<path d="M18 21.375C19.864 21.375 21.375 19.864 21.375 18C21.375 16.136 19.864 14.625 18 14.625C16.136 14.625 14.625 16.136 14.625 18C14.625 19.864 16.136 21.375 18 21.375Z" fill="#F7F7F7"/>
<path d="M18.1 16.75L18 17.4L17.9 16.75L18 14.8L18.1 16.75ZM17.172 14.909L17.58 16.818L17.845 17.42L17.773 16.767L17.172 14.909ZM16.4 15.229L17.288 16.967L17.7 17.48L17.462 16.867L16.4 15.229ZM15.737 15.737L17.045 17.187L17.576 17.576L17.187 17.045L15.737 15.737ZM15.229 16.4L16.867 17.462L17.48 17.7L16.967 17.288L15.229 16.4ZM14.909 17.172L16.767 17.773L17.42 17.845L16.818 17.58L14.909 17.172ZM14.8 18L16.75 18.1L17.4 18L16.75 17.9L14.8 18ZM14.909 18.828L16.818 18.42L17.42 18.155L16.767 18.227L14.909 18.828ZM15.229 19.6L16.967 18.712L17.48 18.3L16.867 18.538L15.229 19.6ZM15.737 20.263L17.187 18.955L17.576 18.424L17.045 18.813L15.737 20.263ZM16.4 20.771L17.462 19.133L17.7 18.52L17.288 19.033L16.4 20.771ZM17.172 21.091L17.773 19.233L17.845 18.58L17.58 19.182L17.172 21.091ZM18 21.2L18.1 19.25L18 18.6L17.9 19.25L18 21.2ZM18.828 21.091L18.42 19.182L18.155 18.58L18.227 19.233L18.828 21.091ZM19.6 20.771L18.712 19.033L18.3 18.52L18.538 19.133L19.6 20.771ZM20.263 20.263L18.955 18.813L18.424 18.424L18.813 18.955L20.263 20.263ZM20.771 19.6L19.133 18.538L18.52 18.3L19.033 18.712L20.771 19.6ZM21.091 18.828L19.233 18.227L18.58 18.155L19.182 18.42L21.091 18.828ZM21.2 18L19.25 17.9L18.6 18L19.25 18.1L21.2 18ZM21.091 17.172L19.182 17.58L18.58 17.845L19.233 17.773L21.091 17.172ZM20.771 16.4L19.033 17.288L18.52 17.7L19.133 17.462L20.771 16.4ZM20.263 15.737L18.813 17.045L18.424 17.576L18.955 17.187L20.263 15.737ZM19.6 15.229L18.538 16.867L18.3 17.48L18.712 16.967L19.6 15.229ZM18.828 14.909L18.227 16.767L18.155 17.42L18.42 16.818L18.828 14.909Z" fill="#6666B3"/>
<path d="M17.5599 14.859C17.6703 14.859 17.7599 14.7694 17.7599 14.659C17.7599 14.5485 17.6703 14.459 17.5599 14.459C17.4494 14.459 17.3599 14.5485 17.3599 14.659C17.3599 14.7694 17.4494 14.859 17.5599 14.859Z" fill="#000080"/>
<path d="M16.71 15.087C16.8205 15.087 16.91 14.9975 16.91 14.887C16.91 14.7766 16.8205 14.687 16.71 14.687C16.5996 14.687 16.51 14.7766 16.51 14.887C16.51 14.9975 16.5996 15.087 16.71 15.087Z" fill="#000080"/>
<path d="M15.948 15.526C16.0585 15.526 16.148 15.4364 16.148 15.326C16.148 15.2155 16.0585 15.126 15.948 15.126C15.8376 15.126 15.748 15.2155 15.748 15.326C15.748 15.4364 15.8376 15.526 15.948 15.526Z" fill="#000080"/>
<path d="M15.326 16.148C15.4364 16.148 15.526 16.0584 15.526 15.948C15.526 15.8375 15.4364 15.748 15.326 15.748C15.2155 15.748 15.126 15.8375 15.126 15.948C15.126 16.0584 15.2155 16.148 15.326 16.148Z" fill="#000080"/>
<path d="M14.887 16.91C14.9975 16.91 15.087 16.8205 15.087 16.71C15.087 16.5996 14.9975 16.51 14.887 16.51C14.7766 16.51 14.687 16.5996 14.687 16.71C14.687 16.8205 14.7766 16.91 14.887 16.91Z" fill="#000080"/>
<path d="M14.659 17.76C14.7694 17.76 14.859 17.6704 14.859 17.56C14.859 17.4495 14.7694 17.36 14.659 17.36C14.5485 17.36 14.459 17.4495 14.459 17.56C14.459 17.6704 14.5485 17.76 14.659 17.76Z" fill="#000080"/>
<path d="M14.659 18.64C14.7694 18.64 14.859 18.5504 14.859 18.44C14.859 18.3295 14.7694 18.24 14.659 18.24C14.5485 18.24 14.459 18.3295 14.459 18.44C14.459 18.5504 14.5485 18.64 14.659 18.64Z" fill="#000080"/>
<path d="M14.887 19.49C14.9975 19.49 15.087 19.4004 15.087 19.29C15.087 19.1795 14.9975 19.09 14.887 19.09C14.7766 19.09 14.687 19.1795 14.687 19.29C14.687 19.4004 14.7766 19.49 14.887 19.49Z" fill="#000080"/>
<path d="M15.326 20.252C15.4364 20.252 15.526 20.1624 15.526 20.052C15.526 19.9415 15.4364 19.852 15.326 19.852C15.2155 19.852 15.126 19.9415 15.126 20.052C15.126 20.1624 15.2155 20.252 15.326 20.252Z" fill="#000080"/>
<path d="M15.948 20.874C16.0585 20.874 16.148 20.7845 16.148 20.674C16.148 20.5635 16.0585 20.474 15.948 20.474C15.8376 20.474 15.748 20.5635 15.748 20.674C15.748 20.7845 15.8376 20.874 15.948 20.874Z" fill="#000080"/>
<path d="M16.71 21.313C16.8205 21.313 16.91 21.2234 16.91 21.113C16.91 21.0025 16.8205 20.913 16.71 20.913C16.5996 20.913 16.51 21.0025 16.51 21.113C16.51 21.2234 16.5996 21.313 16.71 21.313Z" fill="#000080"/>
<path d="M17.5599 21.541C17.6703 21.541 17.7599 21.4514 17.7599 21.341C17.7599 21.2305 17.6703 21.141 17.5599 21.141C17.4494 21.141 17.3599 21.2305 17.3599 21.341C17.3599 21.4514 17.4494 21.541 17.5599 21.541Z" fill="#000080"/>
<path d="M18.44 21.541C18.5504 21.541 18.64 21.4514 18.64 21.341C18.64 21.2305 18.5504 21.141 18.44 21.141C18.3295 21.141 18.24 21.2305 18.24 21.341C18.24 21.4514 18.3295 21.541 18.44 21.541Z" fill="#000080"/>
<path d="M19.2901 21.313C19.4005 21.313 19.4901 21.2234 19.4901 21.113C19.4901 21.0025 19.4005 20.913 19.2901 20.913C19.1796 20.913 19.0901 21.0025 19.0901 21.113C19.0901 21.2234 19.1796 21.313 19.2901 21.313Z" fill="#000080"/>
<path d="M20.0521 20.874C20.1625 20.874 20.2521 20.7845 20.2521 20.674C20.2521 20.5635 20.1625 20.474 20.0521 20.474C19.9416 20.474 19.8521 20.5635 19.8521 20.674C19.8521 20.7845 19.9416 20.874 20.0521 20.874Z" fill="#000080"/>
<path d="M20.6739 20.252C20.7843 20.252 20.8739 20.1624 20.8739 20.052C20.8739 19.9415 20.7843 19.852 20.6739 19.852C20.5634 19.852 20.4739 19.9415 20.4739 20.052C20.4739 20.1624 20.5634 20.252 20.6739 20.252Z" fill="#000080"/>
<path d="M21.1131 19.49C21.2235 19.49 21.3131 19.4004 21.3131 19.29C21.3131 19.1795 21.2235 19.09 21.1131 19.09C21.0026 19.09 20.9131 19.1795 20.9131 19.29C20.9131 19.4004 21.0026 19.49 21.1131 19.49Z" fill="#000080"/>
<path d="M21.3409 18.64C21.4513 18.64 21.5409 18.5504 21.5409 18.44C21.5409 18.3295 21.4513 18.24 21.3409 18.24C21.2304 18.24 21.1409 18.3295 21.1409 18.44C21.1409 18.5504 21.2304 18.64 21.3409 18.64Z" fill="#000080"/>
<path d="M21.3409 17.76C21.4513 17.76 21.5409 17.6704 21.5409 17.56C21.5409 17.4495 21.4513 17.36 21.3409 17.36C21.2304 17.36 21.1409 17.4495 21.1409 17.56C21.1409 17.6704 21.2304 17.76 21.3409 17.76Z" fill="#000080"/>
<path d="M21.1131 16.91C21.2235 16.91 21.3131 16.8205 21.3131 16.71C21.3131 16.5996 21.2235 16.51 21.1131 16.51C21.0026 16.51 20.9131 16.5996 20.9131 16.71C20.9131 16.8205 21.0026 16.91 21.1131 16.91Z" fill="#000080"/>
<path d="M20.6739 16.148C20.7843 16.148 20.8739 16.0584 20.8739 15.948C20.8739 15.8375 20.7843 15.748 20.6739 15.748C20.5634 15.748 20.4739 15.8375 20.4739 15.948C20.4739 16.0584 20.5634 16.148 20.6739 16.148Z" fill="#000080"/>
<path d="M20.0521 15.526C20.1625 15.526 20.2521 15.4364 20.2521 15.326C20.2521 15.2155 20.1625 15.126 20.0521 15.126C19.9416 15.126 19.8521 15.2155 19.8521 15.326C19.8521 15.4364 19.9416 15.526 20.0521 15.526Z" fill="#000080"/>
<path d="M19.2901 15.087C19.4005 15.087 19.4901 14.9975 19.4901 14.887C19.4901 14.7766 19.4005 14.687 19.2901 14.687C19.1796 14.687 19.0901 14.7766 19.0901 14.887C19.0901 14.9975 19.1796 15.087 19.2901 15.087Z" fill="#000080"/>
<path d="M18.44 14.859C18.5504 14.859 18.64 14.7694 18.64 14.659C18.64 14.5485 18.5504 14.459 18.44 14.459C18.3295 14.459 18.24 14.5485 18.24 14.659C18.24 14.7694 18.3295 14.859 18.44 14.859Z" fill="#000080"/>
<path d="M18.0001 18.9C18.4972 18.9 18.9001 18.497 18.9001 18C18.9001 17.5029 18.4972 17.1 18.0001 17.1C17.503 17.1 17.1001 17.5029 17.1001 18C17.1001 18.497 17.503 18.9 18.0001 18.9Z" fill="#000080"/>
</g>
<defs>
<clipPath id="clip0_23_1740">
<rect width="36" height="36" fill="white"/>
</clipPath>
</defs>
</svg>
