<svg width="24" height="24" viewBox="0 0 24 24" fill="none" xmlns="http://www.w3.org/2000/svg">
<path fill-rule="evenodd" clip-rule="evenodd" d="M2.33494 7.875C1.79494 9.002 1.98494 10.321 2.36494 12.958L2.64294 14.895C3.12994 18.283 3.37394 19.976 4.54894 20.988C5.72394 22 7.44694 22 10.8939 22H13.1059C16.5529 22 18.2759 22 19.4509 20.988C20.6259 19.976 20.8699 18.283 21.3569 14.895L21.6359 12.958C22.0159 10.321 22.2059 9.002 21.6649 7.875C21.1249 6.748 19.9739 6.062 17.6729 4.692L16.2879 3.867C14.1999 2.622 13.1539 2 11.9999 2C10.8459 2 9.80094 2.622 7.71194 3.867L6.32694 4.692C4.02694 6.062 2.87594 6.748 2.33494 7.875ZM8.24994 18C8.24994 17.8011 8.32896 17.6103 8.46961 17.4697C8.61027 17.329 8.80103 17.25 8.99994 17.25H14.9999C15.1989 17.25 15.3896 17.329 15.5303 17.4697C15.6709 17.6103 15.7499 17.8011 15.7499 18C15.7499 18.1989 15.6709 18.3897 15.5303 18.5303C15.3896 18.671 15.1989 18.75 14.9999 18.75H8.99994C8.80103 18.75 8.61027 18.671 8.46961 18.5303C8.32896 18.3897 8.24994 18.1989 8.24994 18Z" fill="white"/>
</svg>
