<svg width="24" height="24" viewBox="0 0 24 24" fill="none" xmlns="http://www.w3.org/2000/svg">
<path d="M20.55 3.67499C20.55 3.44999 20.475 3.29999 20.325 3.14999C20.175 2.99999 20.025 2.92499 19.8 2.92499C19.575 2.92499 19.425 2.99999 19.275 3.14999L17.25 5.17499C15.75 4.42499 14.025 3.97499 12 3.74999C8.25 4.12499 5.25 5.47499 3.15 7.87499C1.05 10.275 0 11.625 0 12C0 12.375 1.125 13.725 3.15 16.125C3.675 16.725 4.2 17.25 4.875 17.7L2.85 19.8C2.7 19.95 2.625 20.1 2.625 20.325C2.625 20.55 2.7 20.7 2.85 20.85C3 21 3.15 21.075 3.375 21.075C3.6 21.075 3.75 21 3.9 20.85L20.4 4.19999C20.475 4.04999 20.55 3.89999 20.55 3.67499ZM5.4 16.05C3.6 14.4 2.4 13.05 1.8 12C2.475 10.875 3.675 9.52499 5.4 7.94999C7.125 6.37499 9.375 5.39999 12 5.24999C13.5 5.32499 14.925 5.69999 16.125 6.29999L14.85 7.57499C14.025 7.04999 13.125 6.74999 12 6.74999C10.5 6.74999 9.3 7.27499 8.25 8.24999C7.2 9.22499 6.75 10.5 6.75 12C6.75 13.125 7.05 14.1 7.575 14.925L6 16.575C5.775 16.425 5.55 16.2 5.4 16.05ZM8.7 13.8C8.4 13.275 8.25 12.675 8.25 12C8.25 10.95 8.625 10.05 9.375 9.37499C10.125 8.69999 10.95 8.24999 12 8.24999C12.675 8.24999 13.275 8.39999 13.725 8.69999L8.7 13.8ZM20.85 7.87499C20.55 7.49999 20.175 7.19999 19.875 6.89999L18.75 8.02499C20.475 9.59999 21.675 10.95 22.275 12C21.6 13.125 20.4 14.475 18.675 16.05C16.95 17.625 14.625 18.6 12 18.75C10.8 18.675 9.67498 18.45 8.69998 18.075L7.57498 19.2C8.92498 19.725 10.35 20.1 12 20.25C15.75 19.875 18.75 18.525 20.85 16.125C22.95 13.725 24 12.375 24 12C24 11.625 22.875 10.275 20.85 7.87499Z" fill="#828282"/>
<path d="M11.9999 15.75C11.6999 15.75 11.3999 15.675 11.0999 15.6L9.8999 16.8C10.5749 17.1 11.2499 17.25 11.9999 17.25C13.4999 17.25 14.6999 16.725 15.7499 15.75C16.7249 14.775 17.2499 13.5 17.2499 12C17.2499 11.25 17.0999 10.5 16.7999 9.90002L15.5999 11.1C15.6749 11.4 15.7499 11.7 15.7499 12C15.7499 13.05 15.3749 13.95 14.6249 14.625C13.8749 15.3 13.0499 15.75 11.9999 15.75Z" fill="#828282"/>
</svg>
