<svg width="36" height="36" viewBox="0 0 36 36" fill="none" xmlns="http://www.w3.org/2000/svg">
<rect width="36" height="36" rx="18" fill="#C01EDB"/>
<path d="M25.0093 12.46C24.5503 11.996 24.0036 11.628 23.401 11.3773C22.7984 11.1267 22.1519 10.9984 21.4993 11C20.8466 10.9984 20.2002 11.1267 19.5976 11.3773C18.995 11.628 18.4483 11.996 17.9893 12.46L17.7093 12.75L17.4293 12.47C16.501 11.5418 15.242 11.0204 13.9293 11.0204C12.6166 11.0204 11.3576 11.5418 10.4293 12.47C9.51315 13.4047 9 14.6613 9 15.97C9 17.2788 9.51315 18.5354 10.4293 19.47L17.1993 26.26C17.3399 26.4005 17.5305 26.4794 17.7293 26.4794C17.928 26.4794 18.1187 26.4005 18.2593 26.26L25.0293 19.47C25.9458 18.5323 26.4572 17.2721 26.4535 15.9609C26.4497 14.6497 25.9311 13.3925 25.0093 12.46Z" fill="white"/>
</svg>
