<svg width="253" height="286" viewBox="0 0 253 286" fill="none" xmlns="http://www.w3.org/2000/svg">
<g opacity="0.8">
<path d="M151.947 71.0324C145.559 70.7571 133.759 68.3324 133.436 63.6764C133.061 58.282 141.923 53.8051 145.027 57.6696C144.154 56.0425 142.874 53.1185 144.811 52.9117C148.698 52.4964 155.752 59.0624 155.314 61.739L151.947 71.0324Z" fill="#EA6F57"/>
<path d="M157.035 55.795L149.141 75.3367L197.056 90.6291C207.234 93.8776 217.928 87.3509 219.692 76.8136L224.651 47.2039C225.884 39.838 219.204 33.6001 211.94 35.3345C208.329 36.1967 205.448 38.9129 204.376 42.467L195.908 70.5233L157.035 55.795Z" fill="#72A065"/>
<path fill-rule="evenodd" clip-rule="evenodd" d="M179.218 84.9228L185.914 66.7892L185.312 66.5669L178.616 84.7005L179.218 84.9228Z" fill="#72A065"/>
<path fill-rule="evenodd" clip-rule="evenodd" d="M179.218 84.9228L185.914 66.7892L185.312 66.5669L178.616 84.7005L179.218 84.9228Z" fill="white"/>
<path fill-rule="evenodd" clip-rule="evenodd" d="M183.045 96.7853L184.959 78.2046L184.32 78.1388L182.406 96.7195L183.045 96.7853Z" fill="#4F5BCC"/>
<path d="M214.022 13.9892L220.729 18.9715C220.729 19.8462 219.737 23.0272 219.241 24.5083C218.443 26.5494 216.752 28.8117 214.686 30.3376L215.474 41.0435L204.088 41.0435L204.088 30.3376C196.293 29.0441 199.702 11.0365 203.737 8.37349L214.022 13.9892Z" fill="#EA6F57"/>
<path fill-rule="evenodd" clip-rule="evenodd" d="M204.076 31.1095H204.075V30.3073C204.469 30.3073 205.211 30.3073 205.993 30.2641C206.785 30.2204 207.577 30.1341 208.085 29.9752L208.324 30.7409C207.712 30.9323 206.832 31.0212 206.037 31.0651C205.232 31.1095 204.471 31.1095 204.076 31.1095Z" fill="#2D2B38"/>
<path d="M221.091 6.78055C217.024 -2.36435 206.323 0.592853 206.323 3.86216C202.285 1.22752 186.659 4.64914 198.274 15.6776C201.161 17.7968 204.957 18.803 207.102 16.9655C212.874 12.0207 213.434 21.7625 213.434 21.7625C215.267 19.5648 218.393 19.8605 217.456 22.826C216.617 25.4815 219.665 29.3743 221.412 20.8883C225.918 20.8883 230.579 10.2352 221.091 6.78055Z" fill="#2D2B38"/>
<path d="M184.639 278.696L184.639 256.711L165.37 256.711L165.37 260.828L144.962 268.01L144.962 278.696L160.99 278.696L167.822 278.696L172.902 278.696L184.639 278.696Z" fill="#2F2E41"/>
<path d="M245.698 278.725L242.131 257.032L223.117 260.158L223.785 264.22L204.813 274.618L206.546 285.162L222.362 282.562L229.104 281.454L234.116 280.629L245.698 278.725Z" fill="#2F2E41"/>
<path d="M156.805 258.896L204.426 256.15L191.964 177.879L205.629 106.469L169.917 107.544L152.733 174.077L156.805 258.896Z" fill="#C01EDB"/>
<path fill-rule="evenodd" clip-rule="evenodd" d="M206.466 236.724L209.619 252.664C209.642 252.782 209.611 252.904 209.535 252.997C209.459 253.09 209.345 253.143 209.225 253.143H186.015V252.341H208.737L205.679 236.879L206.466 236.724Z" fill="white"/>
<path d="M205.915 262.564L251.992 256.92L226.601 182.907C234.252 153.545 235.998 137.213 233.792 108.344L191.006 108.344L187.479 187.699L205.915 262.564Z" fill="#C01EDB"/>
<path fill-rule="evenodd" clip-rule="evenodd" d="M240.426 237.501L245.395 253.442C245.431 253.557 245.413 253.682 245.347 253.783C245.28 253.883 245.172 253.948 245.052 253.96L220.506 256.389L220.427 255.59L244.483 253.211L239.66 237.74L240.426 237.501Z" fill="#FAFAFF"/>
<path fill-rule="evenodd" clip-rule="evenodd" d="M190.07 181.792L196.498 145.282L195.708 145.143L189.26 181.769L193.865 220.104L194.662 220.008L190.07 181.792Z" fill="#FAFAFF"/>
<path d="M169.375 108.924L233.927 108.836L229.976 53.0498C229.046 39.9215 215.788 31.3507 203.435 35.8927C197.48 38.0826 192.944 42.9968 191.151 49.0837C188.97 56.4939 185.87 66.6959 183.179 74.3269C178.342 88.0458 169.375 108.924 169.375 108.924Z" fill="#F6CC5C"/>
<path fill-rule="evenodd" clip-rule="evenodd" d="M211.836 98.5759L226.985 92.818L226.757 92.2182L211.608 97.976L211.836 98.5759Z" fill="#F6CC5C"/>
<path fill-rule="evenodd" clip-rule="evenodd" d="M211.836 98.5759L226.985 92.818L226.757 92.2182L211.608 97.976L211.836 98.5759Z" fill="white"/>
<path fill-rule="evenodd" clip-rule="evenodd" d="M172.804 108.794L172 105.667L172.622 105.507L173.426 108.634L172.804 108.794Z" fill="#F6CC5C"/>
<path fill-rule="evenodd" clip-rule="evenodd" d="M172.804 108.794L172 105.667L172.622 105.507L173.426 108.634L172.804 108.794Z" fill="white"/>
<path d="M177.166 107.044C171.808 110.931 160.676 116.558 157.418 112.99C153.643 108.856 157.949 99.5218 162.954 100.659C161.199 99.9006 158.279 98.3526 159.717 96.9386C162.603 94.1002 172.55 94.8863 173.916 97.3396L177.166 107.044Z" fill="#EA6F57"/>
<path d="M170.81 89.9972L176.983 110.927L228.621 91.2972C237.144 88.0572 241.312 78.4216 237.837 69.9917L227.687 45.3694C224.698 38.1179 215.002 36.7776 210.158 42.9462C208.225 45.4075 207.523 48.6173 208.252 51.6607L214.062 75.9121L170.81 89.9972Z" fill="#F6CC5C"/>
<path fill-rule="evenodd" clip-rule="evenodd" d="M211.701 66.6251L214.353 73.9533C214.409 74.107 214.34 74.2778 214.194 74.3502L202.713 80.0216L202.429 79.4463L213.652 73.9019L211.098 66.8435L211.701 66.6251Z" fill="white"/>
<path fill-rule="evenodd" clip-rule="evenodd" d="M34.266 91.4796C34.2467 96.5692 38.3571 100.711 43.4468 100.73C44.5428 100.734 45.5949 100.547 46.5713 100.2C47.3737 99.914 48.3268 100.458 48.3236 101.309L48.2949 108.88C48.2836 111.874 45.8474 114.292 42.8534 114.281L6.26166 114.142C3.26772 114.131 0.849847 111.694 0.861177 108.701L0.99658 72.9219C1.00791 69.928 3.44416 67.5101 6.43809 67.5214L15.4895 67.5557C16.2474 67.5585 16.7776 66.7978 16.6377 66.0529C16.5315 65.4873 16.477 64.9035 16.4792 64.3067C16.4985 59.217 20.6401 55.1066 25.7298 55.1259C30.8195 55.1451 34.9299 59.2868 34.9107 64.3765C34.9084 64.9733 34.8495 65.5566 34.7389 66.1214C34.5934 66.8653 35.1179 67.63 35.8758 67.6328L43.0299 67.6599C46.0238 67.6712 48.4417 70.1075 48.4303 73.1014L48.3976 81.7566C48.3944 82.6083 47.4372 83.1445 46.637 82.853C45.6632 82.4982 44.6126 82.3029 43.5165 82.2987C38.4268 82.2795 34.2852 86.3899 34.266 91.4796Z" fill="#333333"/>
<path fill-rule="evenodd" clip-rule="evenodd" d="M70.3558 82.7828C75.4455 82.7828 79.5716 78.6568 79.5716 73.5671C79.5716 72.471 79.3802 71.4197 79.0291 70.4446C78.7406 69.6433 79.2805 68.6881 80.1322 68.6881L87.703 68.6881C90.697 68.6881 93.1241 71.1152 93.1241 74.1092V110.701C93.1241 113.695 90.697 116.122 87.703 116.122H51.9242C48.9302 116.122 46.5031 113.695 46.5031 110.701V101.65C46.5031 100.892 45.7404 100.364 44.9961 100.507C44.4308 100.616 43.8473 100.672 43.2504 100.672C38.1607 100.672 34.0347 96.5462 34.0347 91.4565C34.0347 86.3668 38.1607 82.2407 43.2504 82.2407C43.8473 82.2407 44.4308 82.2975 44.9961 82.4058C45.7404 82.5485 46.5031 82.0212 46.5031 81.2633V74.1091C46.5031 71.1152 48.9302 68.6881 51.9242 68.6881H60.5794C61.4311 68.6881 61.971 69.6433 61.6825 70.4446C61.3314 71.4197 61.14 72.471 61.14 73.5671C61.14 78.6568 65.2661 82.7828 70.3558 82.7828Z" fill="#C01EDB"/>
<path fill-rule="evenodd" clip-rule="evenodd" d="M122.743 43.4882C122.743 38.3985 118.617 34.2724 113.527 34.2724C112.431 34.2724 111.38 34.4638 110.405 34.8149C109.604 35.1034 108.648 34.5635 108.648 33.7118L108.648 26.141C108.648 23.147 111.076 20.7199 114.069 20.7199L150.662 20.7199C153.655 20.7199 156.083 23.147 156.083 26.141L156.083 61.9198C156.083 64.9138 153.655 67.3409 150.662 67.3409L141.61 67.3409C140.852 67.3409 140.325 68.1036 140.467 68.8479C140.576 69.4132 140.633 69.9967 140.633 70.5936C140.633 75.6833 136.507 79.8093 131.417 79.8093C126.327 79.8093 122.201 75.6833 122.201 70.5936C122.201 69.9967 122.258 69.4132 122.366 68.8479C122.509 68.1036 121.982 67.3409 121.224 67.3409L114.069 67.3409C111.076 67.3409 108.648 64.9138 108.648 61.9198L108.648 53.2646C108.648 52.4129 109.604 51.873 110.405 52.1615C111.38 52.5126 112.431 52.704 113.527 52.704C118.617 52.704 122.743 48.5779 122.743 43.4882Z" fill="#4E6BFF"/>
<path fill-rule="evenodd" clip-rule="evenodd" d="M25.8405 54.0588C20.7508 54.0588 16.6247 58.1849 16.6247 63.2746C16.6247 64.3707 16.8161 65.422 17.1672 66.3971C17.4557 67.1984 16.9158 68.1536 16.0641 68.1536L8.49325 68.1536C5.49929 68.1536 3.0722 65.7265 3.0722 62.7325L3.0722 26.1405C3.0722 23.1465 5.49928 20.7195 8.49324 20.7195L44.2721 20.7195C47.2661 20.7195 49.6931 23.1465 49.6931 26.1405L49.6931 35.192C49.6931 35.9499 50.4559 36.4772 51.2002 36.3345C51.7655 36.2261 52.349 36.1694 52.9458 36.1694C58.0356 36.1694 62.1616 40.2955 62.1616 45.3852C62.1616 50.4749 58.0356 54.6009 52.9459 54.601C52.349 54.601 51.7655 54.5442 51.2002 54.4359C50.4559 54.2931 49.6931 54.8205 49.6931 55.5784L49.6932 62.7325C49.6932 65.7265 47.2661 68.1536 44.2721 68.1536L35.6169 68.1536C34.7652 68.1536 34.2253 67.1984 34.5138 66.3971C34.8649 65.422 35.0563 64.3707 35.0563 63.2746C35.0563 58.1849 30.9302 54.0588 25.8405 54.0588Z" fill="#FFC774"/>
</g>
</svg>
