<svg width="24" height="25" viewBox="0 0 24 25" fill="none" xmlns="http://www.w3.org/2000/svg">
<path d="M5.10975 2.30444L4.05375 3.35894L5.625 4.92944L6.6795 3.87494L5.10975 2.30444ZM18.891 2.30444L17.3197 3.87494L18.375 4.92944L19.9455 3.35969L18.891 2.30444ZM12 2.77244C11.7525 2.77544 11.502 2.78969 11.25 2.82044C11.2425 2.82044 11.235 2.81894 11.2275 2.82044C8.1855 3.16919 5.7645 5.62694 5.34375 8.65544C5.00775 11.0929 6.01275 13.3032 7.6875 14.7267C8.37256 15.3114 8.83592 16.1136 9 16.9992V21.4992H10.71C10.971 21.9469 11.4473 22.2492 12 22.2492C12.5527 22.2492 13.029 21.9469 13.29 21.4992H15V18.4992H15.0705V17.6082C15.0705 16.5087 15.642 15.4002 16.5705 14.5384C17.8125 13.2949 18.75 11.5287 18.75 9.49994C18.75 5.79494 15.7005 2.73794 12 2.77244ZM12 4.27244C14.8988 4.23194 17.25 6.60494 17.25 9.49994C17.25 11.0704 16.5225 12.4534 15.5153 13.4599L15.5392 13.4839C14.5383 14.407 13.891 15.6505 13.7092 16.9999H10.4288C10.2638 15.7144 9.7125 14.4702 8.67075 13.5777C7.3455 12.4527 6.55575 10.7577 6.81975 8.84369C7.1475 6.48119 9.0645 4.58144 11.4135 4.32119C11.6074 4.29415 11.8027 4.27813 11.9985 4.27319L12 4.27244ZM1.5 9.49994V10.9999H3.75V9.49994H1.5ZM20.25 9.49994V10.9999H22.5V9.49994H20.25ZM5.625 15.5704L4.0545 17.1402L5.10975 18.1954L6.67875 16.6249L5.625 15.5704ZM18.375 15.5704L17.3205 16.6249L18.8903 18.1954L19.9455 17.1402L18.375 15.5704ZM10.5 18.4999H13.5V19.9999H10.5V18.4999Z" fill="#333333"/>
</svg>
