<svg width="24" height="25" viewBox="0 0 24 25" fill="none" xmlns="http://www.w3.org/2000/svg">
<path d="M14.491 16.0001H14.5M9.5 16.0001H9.509M4.268 19.3451C4.493 21.0151 5.876 22.3241 7.56 22.4011C8.976 22.4661 10.415 22.5001 12 22.5001C13.585 22.5001 15.024 22.4661 16.44 22.4001C18.124 22.3241 19.507 21.0151 19.732 19.3451C19.879 18.2551 20 17.1381 20 16.0001C20 14.8621 19.879 13.7451 19.732 12.6551C19.507 10.9851 18.124 9.67606 16.44 9.59906C14.961 9.53146 13.4806 9.49845 12 9.50006C10.415 9.50006 8.976 9.53406 7.56 9.60006C5.876 9.67606 4.493 10.9851 4.268 12.6551C4.12 13.7451 4 14.8621 4 16.0001C4 17.1381 4.121 18.2551 4.268 19.3451Z" stroke="#333333" stroke-width="1.2" stroke-linecap="round" stroke-linejoin="round"/>
<path d="M7.5 9.5V7C7.5 5.80653 7.97411 4.66193 8.81802 3.81802C9.66193 2.97411 10.8065 2.5 12 2.5C13.1935 2.5 14.3381 2.97411 15.182 3.81802C16.0259 4.66193 16.5 5.80653 16.5 7V9.5" stroke="#333333" stroke-width="1.2" stroke-linecap="round" stroke-linejoin="round"/>
</svg>
