<svg width="22" height="23" viewBox="0 0 22 23" fill="none" xmlns="http://www.w3.org/2000/svg">
<path d="M14.25 8.5C14.25 10.2949 12.7949 11.75 11 11.75V13.25C13.6234 13.25 15.75 11.1234 15.75 8.5H14.25ZM11 11.75C9.20507 11.75 7.75 10.2949 7.75 8.5H6.25C6.25 11.1234 8.37665 13.25 11 13.25V11.75ZM7.75 8.5C7.75 6.70507 9.20507 5.25 11 5.25V3.75C8.37665 3.75 6.25 5.87665 6.25 8.5H7.75ZM11 5.25C12.7949 5.25 14.25 6.70507 14.25 8.5H15.75C15.75 5.87665 13.6234 3.75 11 3.75V5.25ZM8 16.25H14V14.75H8V16.25ZM1.75 11.5C1.75 6.39137 5.89137 2.25 11 2.25V0.75C5.06294 0.75 0.25 5.56294 0.25 11.5H1.75ZM11 2.25C16.1086 2.25 20.25 6.39137 20.25 11.5H21.75C21.75 5.56294 16.9371 0.75 11 0.75V2.25ZM20.25 11.5C20.25 14.1233 19.159 16.4905 17.4039 18.1748L18.4425 19.2571C20.4801 17.3016 21.75 14.5485 21.75 11.5H20.25ZM17.4039 18.1748C15.7412 19.7705 13.4858 20.75 11 20.75V22.25C13.8882 22.25 16.5117 21.11 18.4425 19.2571L17.4039 18.1748ZM14 16.25C15.576 16.25 16.8915 17.3726 17.1876 18.8621L18.6588 18.5697C18.226 16.3918 16.3055 14.75 14 14.75V16.25ZM11 20.75C8.51425 20.75 6.25884 19.7705 4.59612 18.1748L3.55751 19.2571C5.48833 21.11 8.11182 22.25 11 22.25V20.75ZM4.59612 18.1748C2.84103 16.4905 1.75 14.1233 1.75 11.5H0.25C0.25 14.5485 1.51989 17.3016 3.55751 19.2571L4.59612 18.1748ZM8 14.75C5.69445 14.75 3.77403 16.3918 3.3412 18.5697L4.81243 18.8621C5.10846 17.3726 6.42396 16.25 8 16.25V14.75Z" fill="#333333"/>
</svg>
