<svg width="19" height="18" viewBox="0 0 19 18" fill="none" xmlns="http://www.w3.org/2000/svg">
<path d="M12.8025 0.419013C12.7136 0.335628 12.6022 0.280071 12.4821 0.259182C12.362 0.238294 12.2384 0.252986 12.1265 0.30145C12.0147 0.349915 11.9194 0.430034 11.8525 0.531944C11.7856 0.633854 11.75 0.753105 11.75 0.875013V3.61101C11.571 3.61501 11.3625 3.62601 11.13 3.64701C10.3625 3.71801 9.322 3.91001 8.242 4.39951C6.041 5.39701 3.779 7.58651 3.254 12.1795C3.2397 12.3052 3.26391 12.4324 3.32342 12.544C3.38293 12.6557 3.47494 12.7467 3.58728 12.805C3.69962 12.8632 3.82699 12.886 3.95256 12.8703C4.07813 12.8546 4.19597 12.8011 4.2905 12.717C6.458 10.79 8.489 9.96051 9.9585 9.60751C10.5298 9.46695 11.1137 9.38371 11.7015 9.35901L11.75 9.35751V12.125C11.75 12.2469 11.7856 12.3662 11.8525 12.4681C11.9194 12.57 12.0147 12.6501 12.1265 12.6986C12.2384 12.747 12.362 12.7617 12.4821 12.7408C12.6022 12.72 12.7136 12.6644 12.8025 12.581L18.8025 6.95601C18.8649 6.89756 18.9146 6.82693 18.9486 6.74849C18.9825 6.67006 19.0001 6.58549 19.0001 6.50001C19.0001 6.41453 18.9825 6.32996 18.9486 6.25153C18.9146 6.1731 18.8649 6.10247 18.8025 6.04401L12.8025 0.419013ZM0 4.12501C0 3.29621 0.32924 2.50136 0.915291 1.9153C1.50134 1.32925 2.2962 1.00001 3.125 1.00001H7.25C7.41576 1.00001 7.57473 1.06586 7.69194 1.18307C7.80915 1.30028 7.875 1.45925 7.875 1.62501C7.875 1.79077 7.80915 1.94974 7.69194 2.06695C7.57473 2.18417 7.41576 2.25001 7.25 2.25001H3.125C2.62772 2.25001 2.15081 2.44756 1.79917 2.79919C1.44754 3.15082 1.25 3.62773 1.25 4.12501V14.875C1.25 15.3723 1.44754 15.8492 1.79917 16.2008C2.15081 16.5525 2.62772 16.75 3.125 16.75H13.875C14.3723 16.75 14.8492 16.5525 15.2008 16.2008C15.5525 15.8492 15.75 15.3723 15.75 14.875V13.75C15.75 13.5843 15.8158 13.4253 15.9331 13.3081C16.0503 13.1909 16.2092 13.125 16.375 13.125C16.5408 13.125 16.6997 13.1909 16.8169 13.3081C16.9342 13.4253 17 13.5843 17 13.75V14.875C17 15.7038 16.6708 16.4987 16.0847 17.0847C15.4987 17.6708 14.7038 18 13.875 18H3.125C2.2962 18 1.50134 17.6708 0.915291 17.0847C0.32924 16.4987 0 15.7038 0 14.875V4.12501Z" fill="#333333"/>
</svg>
