<svg width="25" height="24" viewBox="0 0 25 24" fill="none" xmlns="http://www.w3.org/2000/svg">
<g clip-path="url(#clip0_261_3307)">
<path d="M5.64289 12V7.49142C5.65628 6.60519 5.84441 5.73031 6.1965 4.91691C6.54859 4.10351 7.05772 3.36758 7.69472 2.75128C8.33172 2.13499 9.08406 1.65044 9.90864 1.32541C10.7332 1.00037 11.6138 0.841243 12.5 0.857131C13.3862 0.841243 14.2668 1.00037 15.0914 1.32541C15.916 1.65044 16.6684 2.13499 17.3054 2.75128C17.9423 3.36758 18.4515 4.10351 18.8036 4.91691C19.1557 5.73031 19.3438 6.60519 19.3572 7.49142V12M15.9286 21C16.8379 21 17.71 20.6388 18.353 19.9958C18.996 19.3528 19.3572 18.4807 19.3572 17.5714V13.7143M15.9286 21C15.9286 21.5683 15.7028 22.1134 15.301 22.5152C14.8991 22.9171 14.3541 23.1428 13.7857 23.1428H11.2143C10.646 23.1428 10.101 22.9171 9.69909 22.5152C9.29723 22.1134 9.07146 21.5683 9.07146 21C9.07146 20.4317 9.29723 19.8866 9.69909 19.4848C10.101 19.0829 10.646 18.8571 11.2143 18.8571H13.7857C14.3541 18.8571 14.8991 19.0829 15.301 19.4848C15.7028 19.8866 15.9286 20.4317 15.9286 21ZM3.07146 9.42856H4.78575C5.01308 9.42856 5.23109 9.51887 5.39184 9.67961C5.55259 9.84036 5.64289 10.0584 5.64289 10.2857V15.4286C5.64289 15.6559 5.55259 15.8739 5.39184 16.0347C5.23109 16.1954 5.01308 16.2857 4.78575 16.2857H3.07146C2.61681 16.2857 2.18077 16.1051 1.85928 15.7836C1.53779 15.4621 1.35718 15.0261 1.35718 14.5714V11.1428C1.35718 10.6882 1.53779 10.2522 1.85928 9.93066C2.18077 9.60917 2.61681 9.42856 3.07146 9.42856ZM21.9286 16.2857H20.2143C19.987 16.2857 19.769 16.1954 19.6082 16.0347C19.4475 15.8739 19.3572 15.6559 19.3572 15.4286V10.2857C19.3572 10.0584 19.4475 9.84036 19.6082 9.67961C19.769 9.51887 19.987 9.42856 20.2143 9.42856H21.9286C22.3833 9.42856 22.8193 9.60917 23.1408 9.93066C23.4623 10.2522 23.6429 10.6882 23.6429 11.1428V14.5714C23.6429 15.0261 23.4623 15.4621 23.1408 15.7836C22.8193 16.1051 22.3833 16.2857 21.9286 16.2857Z" stroke="white" stroke-linecap="round" stroke-linejoin="round"/>
</g>
<defs>
<clipPath id="clip0_261_3307">
<rect width="24" height="24" fill="white" transform="translate(0.5)"/>
</clipPath>
</defs>
</svg>
