<svg width="24" height="25" viewBox="0 0 24 25" fill="none" xmlns="http://www.w3.org/2000/svg">
<path d="M5.14289 12.5V7.99145C5.15628 7.10522 5.34441 6.23034 5.6965 5.41694C6.04859 4.60354 6.55772 3.86761 7.19472 3.25131C7.83172 2.63502 8.58406 2.15047 9.40864 1.82544C10.2332 1.5004 11.1138 1.34127 12 1.35716C12.8862 1.34127 13.7668 1.5004 14.5914 1.82544C15.416 2.15047 16.1684 2.63502 16.8054 3.25131C17.4423 3.86761 17.9515 4.60354 18.3036 5.41694C18.6557 6.23034 18.8438 7.10522 18.8572 7.99145V12.5M15.4286 21.5C16.3379 21.5 17.21 21.1388 17.853 20.4958C18.496 19.8528 18.8572 18.9808 18.8572 18.0714V14.2143M15.4286 21.5C15.4286 22.0683 15.2028 22.6134 14.801 23.0152C14.3991 23.4171 13.8541 23.6429 13.2857 23.6429H10.7143C10.146 23.6429 9.60096 23.4171 9.19909 23.0152C8.79723 22.6134 8.57146 22.0683 8.57146 21.5C8.57146 20.9317 8.79723 20.3867 9.19909 19.9848C9.60096 19.5829 10.146 19.3572 10.7143 19.3572H13.2857C13.8541 19.3572 14.3991 19.5829 14.801 19.9848C15.2028 20.3867 15.4286 20.9317 15.4286 21.5ZM2.57146 9.92859H4.28575C4.51308 9.92859 4.7311 10.0189 4.89184 10.1796C5.05259 10.3404 5.14289 10.5584 5.14289 10.7857V15.9286C5.14289 16.1559 5.05259 16.3739 4.89184 16.5347C4.7311 16.6954 4.51308 16.7857 4.28575 16.7857H2.57146C2.11681 16.7857 1.68077 16.6051 1.35928 16.2836C1.03779 15.9621 0.857178 15.5261 0.857178 15.0714V11.6429C0.857178 11.1882 1.03779 10.7522 1.35928 10.4307C1.68077 10.1092 2.11681 9.92859 2.57146 9.92859ZM21.4286 16.7857H19.7143C19.487 16.7857 19.269 16.6954 19.1082 16.5347C18.9475 16.3739 18.8572 16.1559 18.8572 15.9286V10.7857C18.8572 10.5584 18.9475 10.3404 19.1082 10.1796C19.269 10.0189 19.487 9.92859 19.7143 9.92859H21.4286C21.8833 9.92859 22.3193 10.1092 22.6408 10.4307C22.9623 10.7522 23.1429 11.1882 23.1429 11.6429V15.0714C23.1429 15.5261 22.9623 15.9621 22.6408 16.2836C22.3193 16.6051 21.8833 16.7857 21.4286 16.7857Z" stroke="#333333" stroke-linecap="round" stroke-linejoin="round"/>
</svg>
