<svg width="30" height="30" viewBox="0 0 30 30" fill="none" xmlns="http://www.w3.org/2000/svg">
<path d="M15 0C23.2845 0 30 6.7155 30 15C30 23.2845 23.2845 30 15 30C6.7155 30 0 23.2845 0 15C0 6.7155 6.7155 0 15 0ZM16.404 8.4735C15.918 7.176 14.082 7.176 13.596 8.4735L9.096 20.4735C8.95651 20.8459 8.97058 21.2584 9.13513 21.6204C9.29967 21.9824 9.60123 22.2642 9.9735 22.404L10.14 22.4565C10.4969 22.5446 10.8737 22.4985 11.1989 22.3271C11.5241 22.1556 11.775 21.8707 11.904 21.5265L12.6645 19.5H17.3355L18.096 21.5265C18.1613 21.7159 18.264 21.8902 18.3978 22.0393C18.5316 22.1884 18.694 22.3091 18.8752 22.3944C19.0565 22.4797 19.253 22.5279 19.4531 22.536C19.6533 22.5441 19.8531 22.5121 20.0406 22.4417C20.2282 22.3714 20.3998 22.2642 20.5453 22.1265C20.6907 21.9887 20.8072 21.8232 20.8876 21.6398C20.9681 21.4563 21.011 21.2586 21.0138 21.0583C21.0166 20.858 20.9793 20.6591 20.904 20.4735L16.404 8.4735ZM15 13.272L16.2105 16.5H13.7895L15 13.272Z" fill="#3D33FA"/>
</svg>
